G04 MADE WITH FRITZING*
G04 WWW.FRITZING.ORG*
G04 DOUBLE SIDED*
G04 HOLES PLATED*
G04 CONTOUR ON CENTER OF CONTOUR VECTOR*
%ASAXBY*%
%FSLAX23Y23*%
%MOIN*%
%OFA0B0*%
%SFA1.0B1.0*%
%ADD10C,0.075000*%
%ADD11C,0.071181*%
%ADD12C,0.069000*%
%ADD13C,0.078000*%
%ADD14C,0.070000*%
%ADD15C,0.039370*%
%ADD16R,0.075000X0.075000*%
%ADD17R,0.069000X0.069000*%
%ADD18R,0.078000X0.078000*%
%ADD19R,0.070000X0.069972*%
%ADD20C,0.024000*%
%LNCOPPER1*%
G90*
G70*
G54D10*
X1356Y459D03*
X1656Y459D03*
X1356Y359D03*
X1656Y359D03*
X1356Y259D03*
X1656Y259D03*
X1356Y159D03*
X1656Y159D03*
G54D11*
X756Y1196D03*
X756Y409D03*
X756Y1196D03*
X756Y409D03*
G54D12*
X1156Y409D03*
X1156Y309D03*
G54D10*
X2156Y409D03*
X2556Y409D03*
X2156Y159D03*
X2556Y159D03*
G54D13*
X3656Y159D03*
X3656Y259D03*
X3656Y359D03*
X3656Y459D03*
X56Y446D03*
X56Y546D03*
X56Y646D03*
X56Y746D03*
X56Y846D03*
X256Y109D03*
X256Y309D03*
X256Y509D03*
X1856Y1209D03*
X1856Y1109D03*
X1556Y1209D03*
X1556Y1109D03*
X1256Y1209D03*
X1256Y1109D03*
G54D14*
X2156Y609D03*
X2256Y609D03*
X2356Y609D03*
X2456Y609D03*
X2556Y609D03*
X2656Y609D03*
X2756Y609D03*
X2856Y609D03*
X2956Y609D03*
X3056Y609D03*
X3156Y609D03*
X3256Y609D03*
X3356Y609D03*
X3456Y609D03*
X3556Y609D03*
X2156Y1209D03*
X2256Y1209D03*
X2356Y1209D03*
X2456Y1209D03*
X2556Y1209D03*
X2656Y1209D03*
X2756Y1209D03*
X2856Y1209D03*
X2956Y1209D03*
X3056Y1209D03*
X3156Y1209D03*
X3256Y1209D03*
X3356Y1209D03*
X3456Y1209D03*
X3556Y1209D03*
G54D15*
X1856Y609D03*
X1956Y609D03*
X1856Y357D03*
X3056Y909D03*
X2756Y909D03*
G54D16*
X1356Y459D03*
G54D17*
X1156Y409D03*
G54D16*
X2156Y409D03*
X2156Y159D03*
G54D18*
X256Y109D03*
G54D19*
X2156Y608D03*
G54D20*
X2456Y109D02*
X2404Y57D01*
D02*
X2456Y579D02*
X2456Y260D01*
D02*
X2456Y260D02*
X2456Y109D01*
D02*
X1456Y57D02*
X1356Y109D01*
D02*
X2404Y57D02*
X1456Y57D01*
D02*
X1356Y109D02*
X1356Y130D01*
D02*
X856Y1209D02*
X1226Y1209D01*
D02*
X793Y1201D02*
X856Y1209D01*
D02*
X1286Y1209D02*
X1526Y1209D01*
D02*
X1586Y1209D02*
X1826Y1209D01*
D02*
X2104Y1109D02*
X2208Y1109D01*
D02*
X2056Y1209D02*
X2104Y1109D01*
D02*
X2208Y1109D02*
X2244Y1182D01*
D02*
X1886Y1209D02*
X2056Y1209D01*
D02*
X1656Y609D02*
X1604Y657D01*
D02*
X256Y609D02*
X256Y539D01*
D02*
X308Y657D02*
X256Y609D01*
D02*
X1656Y487D02*
X1656Y609D01*
D02*
X1604Y657D02*
X308Y657D01*
D02*
X86Y838D02*
X204Y809D01*
D02*
X204Y809D02*
X2608Y809D01*
D02*
X2756Y657D02*
X2756Y638D01*
D02*
X2608Y809D02*
X2756Y657D01*
D02*
X2656Y638D02*
X2656Y657D01*
D02*
X2656Y657D02*
X2556Y757D01*
D02*
X2556Y757D02*
X256Y757D01*
D02*
X256Y757D02*
X86Y747D01*
D02*
X84Y657D02*
X204Y709D01*
D02*
X204Y709D02*
X2504Y709D01*
D02*
X2504Y709D02*
X2556Y657D01*
D02*
X2556Y657D02*
X2556Y638D01*
D02*
X1280Y1090D02*
X1456Y957D01*
D02*
X3069Y895D02*
X3104Y857D01*
D02*
X1456Y957D02*
X2708Y957D01*
D02*
X2708Y957D02*
X2743Y922D01*
D02*
X3056Y657D02*
X3056Y638D01*
D02*
X3108Y709D02*
X3056Y657D01*
D02*
X3108Y757D02*
X3108Y709D01*
D02*
X3104Y857D02*
X3108Y757D01*
D02*
X3508Y457D02*
X3631Y375D01*
D02*
X2656Y460D02*
X3508Y457D01*
D02*
X2604Y309D02*
X2656Y460D01*
D02*
X2504Y309D02*
X2604Y309D01*
D02*
X2456Y260D02*
X2504Y309D01*
D02*
X1156Y109D02*
X1329Y152D01*
D02*
X256Y109D02*
X1156Y109D01*
D02*
X156Y209D02*
X256Y109D01*
D02*
X156Y368D02*
X156Y209D01*
D02*
X156Y457D02*
X156Y368D01*
D02*
X79Y526D02*
X156Y457D01*
D02*
X1156Y209D02*
X756Y209D01*
D02*
X756Y209D02*
X756Y372D01*
D02*
X1329Y252D02*
X1156Y209D01*
D02*
X1329Y352D02*
X1180Y314D01*
D02*
X1329Y452D02*
X1180Y414D01*
D02*
X3556Y509D02*
X3629Y472D01*
D02*
X2569Y434D02*
X2604Y509D01*
D02*
X2604Y509D02*
X3556Y509D01*
D02*
X2128Y159D02*
X1685Y159D01*
D02*
X1808Y260D02*
X1685Y259D01*
D02*
X1956Y1057D02*
X2856Y1057D01*
D02*
X2856Y1057D02*
X2956Y957D01*
D02*
X1883Y1095D02*
X1956Y1057D01*
D02*
X2956Y957D02*
X2956Y638D01*
D02*
X1704Y1009D02*
X2804Y1009D01*
D02*
X2804Y1009D02*
X2856Y957D01*
D02*
X1581Y1092D02*
X1704Y1009D01*
D02*
X2856Y957D02*
X2856Y638D01*
D02*
X1856Y309D02*
X1856Y338D01*
D02*
X1808Y260D02*
X1856Y309D01*
D02*
X1856Y376D02*
X1856Y590D01*
D02*
X2056Y257D02*
X2008Y257D01*
D02*
X2008Y257D02*
X1956Y309D01*
D02*
X2136Y179D02*
X2056Y257D01*
D02*
X1956Y309D02*
X1956Y590D01*
D02*
X3708Y709D02*
X3508Y709D01*
D02*
X3508Y709D02*
X3456Y657D01*
D02*
X3756Y657D02*
X3708Y709D01*
D02*
X3456Y657D02*
X3456Y638D01*
D02*
X3756Y309D02*
X3756Y657D01*
D02*
X3704Y257D02*
X3756Y309D01*
D02*
X3686Y257D02*
X3704Y257D01*
D02*
X3756Y757D02*
X3456Y757D01*
D02*
X3456Y757D02*
X3356Y657D01*
D02*
X3808Y709D02*
X3756Y757D01*
D02*
X3356Y657D02*
X3356Y638D01*
D02*
X3808Y257D02*
X3808Y709D01*
D02*
X3704Y157D02*
X3808Y257D01*
D02*
X3686Y157D02*
X3704Y157D01*
G04 End of Copper1*
M02*