M48
INCH
T10C0.035000
T11C0.051181
T12C0.027000
T13C0.038000
T14C0.036000
T15C0.015748
T16C0.086614
%
T10
X025562Y001585
X021562Y001585
X025562Y004085
X021562Y004085
X016562Y001585
X013562Y001585
X016562Y002585
X013562Y002585
X016562Y003585
X013562Y003585
X016562Y004585
X013562Y004585
T11
X007562Y004085
X007562Y011959
T12
X011562Y003085
X011562Y004085
T13
X012562Y011085
X012562Y012085
X015562Y011085
X015562Y012085
X018562Y011085
X018562Y012085
X002562Y005085
X002562Y003085
X002562Y001085
X000562Y008455
X000562Y007455
X000562Y006455
X000562Y005455
X000562Y004455
X036562Y004585
X036562Y003585
X036562Y002585
X036562Y001585
T14
X035562Y012085
X034562Y012085
X033562Y012085
X032562Y012085
X031562Y012085
X030562Y012085
X029562Y012085
X028562Y012085
X027562Y012085
X026562Y012085
X025562Y012085
X024562Y012085
X023562Y012085
X022562Y012085
X021562Y012085
X035562Y006085
X034562Y006085
X033562Y006085
X032562Y006085
X031562Y006085
X030562Y006085
X029562Y006085
X028562Y006085
X027562Y006085
X026562Y006085
X025562Y006085
X024562Y006085
X023562Y006085
X022562Y006085
X021562Y006085
T15
X027562Y009085
X030562Y009085
X018562Y003566
X019562Y006085
X018562Y006085
T16
X001062Y001085
X001062Y012085
X038062Y001085
X038062Y012085
T00
M30
