G04 MADE WITH FRITZING*
G04 WWW.FRITZING.ORG*
G04 DOUBLE SIDED*
G04 HOLES PLATED*
G04 CONTOUR ON CENTER OF CONTOUR VECTOR*
%ASAXBY*%
%FSLAX23Y23*%
%MOIN*%
%OFA0B0*%
%SFA1.0B1.0*%
%ADD10C,0.075000*%
%ADD11C,0.071181*%
%ADD12C,0.069000*%
%ADD13C,0.078000*%
%ADD14C,0.070000*%
%ADD15C,0.039370*%
%ADD16R,0.075000X0.075000*%
%ADD17R,0.069000X0.069000*%
%ADD18R,0.078000X0.078000*%
%ADD19R,0.070000X0.069972*%
%ADD20C,0.024000*%
%LNCOPPER0*%
G90*
G70*
G54D10*
X1356Y459D03*
X1656Y459D03*
X1356Y359D03*
X1656Y359D03*
X1356Y259D03*
X1656Y259D03*
X1356Y159D03*
X1656Y159D03*
G54D11*
X756Y1196D03*
X756Y409D03*
G54D12*
X1156Y409D03*
X1156Y309D03*
G54D10*
X2156Y409D03*
X2556Y409D03*
X2156Y159D03*
X2556Y159D03*
G54D13*
X3656Y159D03*
X3656Y259D03*
X3656Y359D03*
X3656Y459D03*
X56Y446D03*
X56Y546D03*
X56Y646D03*
X56Y746D03*
X56Y846D03*
X256Y109D03*
X256Y309D03*
X256Y509D03*
X1856Y1209D03*
X1856Y1109D03*
X1556Y1209D03*
X1556Y1109D03*
X1256Y1209D03*
X1256Y1109D03*
G54D14*
X2156Y609D03*
X2256Y609D03*
X2356Y609D03*
X2456Y609D03*
X2556Y609D03*
X2656Y609D03*
X2756Y609D03*
X2856Y609D03*
X2956Y609D03*
X3056Y609D03*
X3156Y609D03*
X3256Y609D03*
X3356Y609D03*
X3456Y609D03*
X3556Y609D03*
X2156Y1209D03*
X2256Y1209D03*
X2356Y1209D03*
X2456Y1209D03*
X2556Y1209D03*
X2656Y1209D03*
X2756Y1209D03*
X2856Y1209D03*
X2956Y1209D03*
X3056Y1209D03*
X3156Y1209D03*
X3256Y1209D03*
X3356Y1209D03*
X3456Y1209D03*
X3556Y1209D03*
G54D15*
X1856Y609D03*
X1956Y609D03*
X1856Y357D03*
X3056Y909D03*
X2756Y909D03*
G54D16*
X1356Y459D03*
G54D17*
X1156Y409D03*
G54D16*
X2156Y409D03*
X2156Y159D03*
G54D18*
X256Y109D03*
G54D19*
X2156Y608D03*
G54D20*
X756Y709D02*
X708Y657D01*
D02*
X756Y1159D02*
X756Y709D01*
D02*
X708Y657D02*
X256Y657D01*
D02*
X256Y657D02*
X83Y560D01*
D02*
X104Y309D02*
X56Y357D01*
D02*
X226Y309D02*
X104Y309D01*
D02*
X56Y357D02*
X56Y415D01*
D02*
X1677Y478D02*
X1708Y509D01*
D02*
X2508Y509D02*
X2544Y434D01*
D02*
X1808Y509D02*
X2508Y509D01*
D02*
X1708Y509D02*
X1808Y509D01*
D02*
X2556Y380D02*
X2556Y187D01*
D02*
X1756Y560D02*
X1756Y857D01*
D02*
X2456Y957D02*
X2456Y1179D01*
D02*
X1808Y909D02*
X2408Y909D01*
D02*
X2408Y909D02*
X2456Y957D01*
D02*
X1756Y857D02*
X1808Y909D01*
D02*
X1808Y509D02*
X1756Y560D01*
D02*
X2456Y857D02*
X2508Y909D01*
D02*
X2756Y1157D02*
X2756Y1179D01*
D02*
X1856Y627D02*
X1856Y809D01*
D02*
X2708Y1109D02*
X2756Y1157D01*
D02*
X2556Y1109D02*
X2708Y1109D01*
D02*
X2508Y1057D02*
X2556Y1109D01*
D02*
X2508Y909D02*
X2508Y1057D01*
D02*
X1856Y809D02*
X1908Y857D01*
D02*
X1908Y857D02*
X2456Y857D01*
D02*
X2608Y1057D02*
X2808Y1057D01*
D02*
X2808Y1057D02*
X2856Y1109D01*
D02*
X2856Y1109D02*
X2856Y1179D01*
D02*
X2504Y809D02*
X2556Y857D01*
D02*
X2556Y1009D02*
X2608Y1057D01*
D02*
X2008Y809D02*
X2504Y809D01*
D02*
X2556Y857D02*
X2556Y1009D01*
D02*
X1956Y757D02*
X2008Y809D01*
D02*
X1956Y627D02*
X1956Y757D01*
D02*
X2128Y409D02*
X1908Y409D01*
D02*
X1908Y409D02*
X1870Y370D01*
D02*
X2775Y909D02*
X3037Y909D01*
G04 End of Copper0*
M02*